<svg width="20" height="20" viewBox="0 0 20 20" fill="none" xmlns="http://www.w3.org/2000/svg">
<path d="M6.27536 5.442C6.51943 5.19793 6.51943 4.8022 6.27536 4.55812C6.03128 4.31404 5.63555 4.31404 5.39147 4.55812L3.72481 6.22479C3.48073 6.46886 3.48073 6.86459 3.72481 7.10867L5.39147 8.77534C5.63555 9.01941 6.03128 9.01941 6.27536 8.77534C6.51943 8.53126 6.51943 8.13553 6.27536 7.89145L5.67563 7.29173H14.1668C14.5119 7.29173 14.7918 7.01191 14.7918 6.66673C14.7918 6.32155 14.5119 6.04173 14.1668 6.04173H5.67563L6.27536 5.442Z" fill="#091A4B"/>
<path d="M13.7248 11.2248C13.4807 11.4689 13.4807 11.8646 13.7248 12.1087L14.3245 12.7084H5.83342C5.48824 12.7084 5.20842 12.9882 5.20842 13.3334C5.20842 13.6786 5.48824 13.9584 5.83342 13.9584H14.3245L13.7248 14.5581C13.4807 14.8022 13.4807 15.1979 13.7248 15.442C13.9689 15.6861 14.3646 15.6861 14.6087 15.442L16.2754 13.7753C16.5194 13.5313 16.5194 13.1355 16.2754 12.8915L14.6087 11.2248C14.3646 10.9807 13.9689 10.9807 13.7248 11.2248Z" fill="#091A4B"/>
</svg>
